<svg width="24" height="24" viewBox="0 0 24 24" fill="none" xmlns="http://www.w3.org/2000/svg">
<path d="M12 0.5C6.20156 0.5 1.5 5.20156 1.5 11C1.5 16.7984 6.20156 21.5 12 21.5C17.7984 21.5 22.5 16.7984 22.5 11C22.5 5.20156 17.7984 0.5 12 0.5ZM12.1266 16.2031C9.54844 16.2031 8.0625 14.4875 8.0625 11.6352V10.4094C8.0625 7.53594 9.54844 5.79688 12.1242 5.79688C14.3344 5.79688 15.9375 7.21953 15.9375 9.25156C15.9375 9.3125 15.8883 9.36172 15.8273 9.36172H14.4984C14.4 9.36172 14.3203 9.28672 14.3109 9.18828C14.2172 8.02813 13.3734 7.23359 12.1312 7.23359C10.6008 7.23359 9.73828 8.37031 9.73828 10.4094V11.6422C9.73828 13.6508 10.6031 14.7734 12.1312 14.7734C13.3687 14.7734 14.2102 14.0305 14.3109 12.95C14.3203 12.8539 14.4 12.7789 14.4984 12.7789H15.8297C15.8906 12.7789 15.9398 12.8281 15.9398 12.8891C15.9398 14.825 14.3297 16.2031 12.1266 16.2031Z" fill="#D79D66"/>
</svg>
